<?xml version="1.0" encoding="UTF-8" standalone="no"?>
<svg
   xmlns:dc="http://purl.org/dc/elements/1.1/"
   xmlns:cc="http://creativecommons.org/ns#"
   xmlns:rdf="http://www.w3.org/1999/02/22-rdf-syntax-ns#"
   xmlns:svg="http://www.w3.org/2000/svg"
   xmlns="http://www.w3.org/2000/svg"
   width="210mm"
   height="297mm"
   viewBox="0 0 210 297"
   version="1.1"
   id="svg8">
  <defs
     id="defs2" />
  <metadata
     id="metadata5">
    <rdf:RDF>
      <cc:Work
         rdf:about="">
        <dc:format>image/svg+xml</dc:format>
        <dc:type
           rdf:resource="http://purl.org/dc/dcmitype/StillImage" />
        <dc:title></dc:title>
      </cc:Work>
    </rdf:RDF>
  </metadata>
  <g
     style="display:inline"
     id="layer2">
    <path
       id="rect841"
       transform="scale(0.26458333)"
       d="M 430.57031,641.94727 V 996.23438 H 1159.1406 V 641.94727 Z m 200.50586,40.72265 c 5.5147,0 10.26326,2.56874 14.2461,7.70508 4.13602,4.92233 6.20312,11.77034 6.20312,20.54492 0,8.77458 -2.0671,15.7289 -6.20312,20.86524 -3.98284,4.92232 -8.7314,7.38476 -14.2461,7.38476 -5.5147,0 -10.34053,-2.46244 -14.47656,-7.38476 -3.98284,-5.13634 -5.97461,-12.09066 -5.97461,-20.86524 0,-8.77458 1.99177,-15.62259 5.97461,-20.54492 4.13603,-5.13634 8.96186,-7.70508 14.47656,-7.70508 z m -134.95703,20.86719 c 13.63357,0 25.96474,2.13964 36.99414,6.41992 11.18259,4.28028 20.75698,11.022 28.72266,20.22461 7.96568,9.20261 14.0936,20.97355 18.38281,35.3125 4.28921,14.33895 6.43359,31.56627 6.43359,51.68359 0,19.26128 -2.14438,36.06145 -6.43359,50.40039 -4.28921,14.33895 -10.41713,26.2162 -18.38281,35.63282 -7.8125,9.41662 -17.38688,16.47919 -28.72266,21.1875 -11.33577,4.70831 -24.04945,7.0625 -38.14258,7.0625 -6.43382,0 -13.93915,-0.42715 -22.51758,-1.28321 -8.57842,-0.64204 -17.00333,-2.13998 -25.27539,-4.49414 V 708.99414 c 8.27206,-2.14014 16.84958,-3.53179 25.73438,-4.17383 9.03798,-0.85605 16.77321,-1.2832 23.20703,-1.2832 z m 351.64844,6.41992 v 49.75781 h 41.13086 v 39.80664 h -41.13086 v 59.38868 c 0,10.05866 1.22675,18.08377 3.67773,24.07617 2.60417,5.99239 7.73523,8.99023 15.39453,8.99023 3.67647,0 7.43012,-0.4291 11.25977,-1.28515 3.98284,-1.07007 7.58192,-2.46172 10.79883,-4.17383 l 4.82617,37.23828 c -4.13603,2.35415 -8.73197,4.3875 -13.78711,6.09961 -5.05514,1.71211 -11.26035,2.56836 -18.61328,2.56836 -9.34436,0 -17.07959,-1.71249 -23.20703,-5.13672 -6.12745,-3.63824 -11.02861,-8.55922 -14.70508,-14.76563 -3.67647,-6.42042 -6.28064,-14.12468 -7.8125,-23.11328 -1.37868,-8.98859 -2.06836,-18.94074 -2.06836,-29.85547 V 717.66016 Z m -349.81055,36.27539 c -2.45098,0 -4.97787,0.1063 -7.58203,0.32031 -2.60416,0 -5.05572,0.21455 -7.35352,0.64258 v 140.60742 c 1.68505,0.21402 3.60149,0.42857 5.7461,0.64258 h 8.04101 c 17.92278,0 31.17353,-6.31457 39.75196,-18.9414 8.73161,-12.62684 13.09765,-30.0687 13.09765,-52.32618 0,-23.32754 -4.13615,-40.98395 -12.4082,-52.96875 -8.27205,-11.98479 -21.37019,-17.97656 -39.29297,-17.97656 z m 234.69531,8.98828 c 17.15685,0 30.71283,7.38342 40.66993,22.15039 9.9571,14.55297 14.9375,36.06151 14.9375,64.52539 0,2.78219 -0.0773,5.88437 -0.23047,9.3086 -0.15319,3.21021 -0.3058,6.0998 -0.45899,8.66797 H 709.9043 c 0.76593,9.84465 4.05978,17.65716 9.88086,23.43554 5.82107,5.77839 13.63358,8.66797 23.4375,8.66797 6.28063,0 12.4066,-0.74995 18.38086,-2.24804 6.12744,-1.71212 11.10784,-3.74546 14.9375,-6.09961 l 4.59375,38.84375 c -1.83824,1.28408 -4.28784,2.56747 -7.35157,3.85156 -3.06372,1.28408 -6.51019,2.35488 -10.33984,3.21094 -3.67647,1.07007 -7.66001,1.92631 -11.94922,2.56836 -4.28921,0.64204 -8.57797,0.96289 -12.86719,0.96289 -10.87621,0 -20.37332,-2.24789 -28.49218,-6.74219 -7.96568,-4.4943 -14.63068,-10.59237 -19.99219,-18.29688 -5.20833,-7.91852 -9.11459,-17.22898 -11.71875,-27.92968 -2.45098,-10.70071 -3.67578,-22.25711 -3.67578,-34.66993 0,-14.98099 1.60926,-28.03532 4.82617,-39.16406 3.37009,-11.34275 7.73419,-20.7595 13.0957,-28.25 5.36152,-7.49049 11.48944,-13.16337 18.38281,-17.01562 7.04657,-3.85226 14.24668,-5.77735 21.59961,-5.77735 z m 231.57422,0 c 17.15685,0 30.71478,7.38342 40.67184,22.15039 9.9571,14.55297 14.9356,36.06151 14.9356,64.52539 0,2.78219 -0.077,5.88437 -0.2305,9.3086 -0.1532,3.21021 -0.3058,6.0998 -0.459,8.66797 h -77.66598 c 0.76593,9.84465 4.05978,17.65716 9.88086,23.43554 5.82107,5.77839 13.63358,8.66797 23.4375,8.66797 6.28063,0 12.40855,-0.74995 18.38281,-2.24804 6.12744,-1.71212 11.10591,-3.74546 14.93551,-6.09961 l 4.5957,38.84375 c -1.8382,1.28408 -4.2898,2.56747 -7.3535,3.85156 -3.0637,1.28408 -6.51017,2.35488 -10.33982,3.21094 -3.67647,1.07007 -7.66001,1.92631 -11.94922,2.56836 -4.28921,0.64204 -8.57798,0.96289 -12.86719,0.96289 -10.87621,0 -20.37332,-2.24789 -28.49219,-6.74219 -7.96568,-4.4943 -14.63067,-10.59237 -19.99218,-18.29688 -5.20833,-7.91852 -9.11459,-17.22898 -11.71875,-27.92968 -2.45098,-10.70071 -3.67578,-22.25711 -3.67578,-34.66993 0,-14.98099 1.60926,-28.03532 4.82617,-39.16406 3.37009,-11.34275 7.73419,-20.7595 13.0957,-28.25 5.36152,-7.49049 11.48944,-13.16337 18.38281,-17.01562 7.04657,-3.85226 14.24668,-5.77735 21.59961,-5.77735 z m 131.66014,0.96289 c 1.8383,0 4.0599,0.21455 6.6641,0.64258 2.6041,0.21402 5.2083,0.64116 7.8125,1.28321 2.6041,0.42802 5.2083,1.06972 7.8125,1.92578 2.6041,0.64204 4.8239,1.49828 6.6621,2.56836 l -5.7441,39.48632 c -3.0638,-1.07007 -6.6629,-2.14086 -10.7989,-3.21093 -4.136,-1.28409 -8.5793,-1.92579 -13.3281,-1.92579 -2.1446,0 -4.7488,0.32085 -7.8125,0.9629 -2.9105,0.42802 -5.1303,0.96342 -6.6621,1.60546 v 129.05079 h -34.2383 V 768.70312 c 6.1275,-2.99619 13.3276,-5.77753 21.5996,-8.3457 8.4253,-2.78218 17.7697,-4.17383 28.0332,-4.17383 z m -481.81443,3.53125 h 34.23632 v 168.85743 h -34.23632 z m 119.03906,34.99219 c -3.82966,0 -7.12351,0.96255 -9.88086,2.88867 -2.75735,1.71212 -5.05435,4.06631 -6.89258,7.0625 -1.83823,2.9962 -3.29293,6.52748 -4.36523,10.59375 -0.91912,3.85226 -1.6088,7.81069 -2.06836,11.87696 h 45.26562 c -0.15318,-4.06627 -0.6883,-8.0247 -1.60742,-11.87696 -0.76593,-3.85225 -2.06802,-7.27724 -3.90625,-10.27343 -1.68505,-2.9962 -3.90671,-5.45669 -6.66406,-7.38282 -2.60417,-1.92612 -5.89802,-2.88867 -9.88086,-2.88867 z m 231.57422,0 c -3.82966,0 -7.12156,0.96255 -9.87891,2.88867 -2.75735,1.71212 -5.0563,4.06631 -6.89453,7.0625 -1.83823,2.9962 -3.29293,6.52748 -4.36523,10.59375 -0.91912,3.85226 -1.60881,7.81069 -2.06836,11.87696 h 45.26562 c -0.15319,-4.06627 -0.6883,-8.0247 -1.60742,-11.87696 -0.76593,-3.85225 -2.06802,-7.27724 -3.90625,-10.27343 -1.68505,-2.9962 -3.90671,-5.45669 -6.66406,-7.38282 -2.60417,-1.92612 -5.89802,-2.88867 -9.88086,-2.88867 z"
       style="opacity:1;fill:#dbe3e2;fill-opacity:1;stroke-width:0.97462392" />
  </g>
  <g
     style="display:inline"
     id="layer1">
    <rect
       style="fill:none;stroke-width:0.26458332"
       y="133.4875"
       x="0"
       height="163.5125"
       width="264.58334"
       id="rect3713" />
  </g>
  <g
     style="display:inline"
     id="layer4">
    <path
       id="text1409"
       transform="scale(0.26458333)"
       d="M 1726.5293 700.96875 C 1717.4913 700.96875 1709.3736 702.57299 1702.1738 705.7832 C 1694.9741 708.7794 1688.8462 713.16693 1683.791 718.94531 C 1678.7359 724.72369 1674.8296 731.78626 1672.0723 740.13281 C 1669.3149 748.26535 1667.9355 757.46756 1667.9355 767.74023 C 1667.9355 778.01291 1669.2376 786.78797 1671.8418 794.06445 C 1674.446 801.12692 1677.8171 807.22694 1681.9531 812.36328 C 1686.0892 817.28561 1690.7604 821.45859 1695.9688 824.88281 C 1701.1771 828.09302 1706.3854 830.98066 1711.5938 833.54883 C 1723.5423 839.1132 1731.9672 844.35697 1736.8691 849.2793 C 1741.7711 853.98761 1744.2227 859.98133 1744.2227 867.25781 C 1744.2227 870.68204 1743.8401 873.78422 1743.0742 876.56641 C 1742.3083 879.34859 1740.9289 881.80908 1738.9375 883.94922 C 1736.9461 885.87535 1734.2666 887.48154 1730.8965 888.76562 C 1727.6796 889.8357 1723.5434 890.37109 1718.4883 890.37109 C 1708.378 890.37109 1699.7985 888.97945 1692.752 886.19727 C 1685.8586 883.20107 1680.0378 879.88433 1675.2891 876.24609 L 1665.1797 916.05273 C 1667.3243 917.76485 1669.9285 919.58364 1672.9922 921.50977 C 1676.2091 923.43589 1679.9608 925.25468 1684.25 926.9668 C 1688.6924 928.67891 1693.7481 930.07055 1699.416 931.14062 C 1705.0839 932.42471 1711.4417 933.06641 1718.4883 933.06641 C 1739.4748 933.06641 1755.1751 927.39548 1765.5918 916.05273 C 1776.0085 904.49597 1781.2168 888.3375 1781.2168 867.57812 C 1781.2168 856.87742 1780.2219 847.78151 1778.2305 840.29102 C 1776.239 832.80052 1773.1751 826.27335 1769.0391 820.70898 C 1765.0562 815.14462 1760.0005 810.32994 1753.873 806.26367 C 1747.7456 801.98339 1740.5474 797.70216 1732.2754 793.42188 C 1728.2926 791.49575 1724.6142 789.67696 1721.2441 787.96484 C 1718.0272 786.03872 1715.1178 784.00538 1712.5137 781.86523 C 1710.0627 779.51108 1708.1482 776.94234 1706.7695 774.16016 C 1705.3909 771.37797 1704.7012 767.95494 1704.7012 763.88867 C 1704.7012 757.04022 1706.5384 752.01099 1710.2148 748.80078 C 1714.0445 745.37655 1720.2497 743.66406 1728.8281 743.66406 C 1736.4874 743.66406 1742.9979 744.94746 1748.3594 747.51562 C 1753.8741 749.86978 1758.8525 752.65307 1763.2949 755.86328 L 1773.6348 716.37695 C 1768.5796 712.5247 1762.1465 708.99342 1754.334 705.7832 C 1746.5215 702.57299 1737.2523 700.96875 1726.5293 700.96875 z M 1184.6074 706.10352 C 1187.9775 720.22845 1191.9591 736.28062 1196.5547 754.25781 C 1201.3035 772.235 1206.4365 791.06851 1211.9512 810.75781 C 1217.4659 830.44711 1223.2866 850.34947 1229.4141 870.4668 C 1235.5415 890.58413 1241.7448 909.95304 1248.0254 928.57227 L 1282.4922 928.57227 C 1288.7728 909.95304 1294.978 890.58413 1301.1055 870.4668 C 1307.2329 850.34947 1313.0537 830.44711 1318.5684 810.75781 C 1324.0831 791.06851 1329.1368 772.235 1333.7324 754.25781 C 1338.328 736.28062 1342.3888 720.22845 1345.9121 706.10352 L 1307.7676 706.10352 C 1304.7039 718.94436 1301.3347 732.8569 1297.6582 747.83789 C 1294.1349 762.60487 1290.4586 777.3717 1286.6289 792.13867 C 1282.9524 806.90565 1279.2761 821.03078 1275.5996 834.51367 C 1272.0763 847.99656 1268.8598 859.65926 1265.9492 869.50391 C 1262.8855 859.65926 1259.5916 847.99656 1256.0684 834.51367 C 1252.5451 821.03078 1248.8687 806.90565 1245.0391 792.13867 L 1234.0098 747.83789 C 1230.4865 732.8569 1227.1926 718.94436 1224.1289 706.10352 L 1184.6074 706.10352 z M 1839.5879 709.95703 L 1805.3516 717.66016 L 1805.3516 859.55273 C 1805.3516 870.46746 1806.0412 880.41961 1807.4199 889.4082 C 1808.9518 898.3968 1811.556 906.10106 1815.2324 912.52148 C 1818.9089 918.72789 1823.8101 923.64887 1829.9375 927.28711 C 1836.0649 930.71134 1843.8021 932.42383 1853.1465 932.42383 C 1860.4994 932.42383 1866.7027 931.56758 1871.7578 929.85547 C 1876.813 928.14336 1881.4089 926.11001 1885.5449 923.75586 L 1880.7188 886.51758 C 1877.5018 888.22969 1873.9028 889.62134 1869.9199 890.69141 C 1866.0903 891.54746 1862.3366 891.97656 1858.6602 891.97656 C 1851.0008 891.97656 1845.8698 888.97872 1843.2656 882.98633 C 1840.8146 876.99393 1839.5879 868.96882 1839.5879 858.91016 L 1839.5879 799.52148 L 1880.7188 799.52148 L 1880.7188 759.71484 L 1839.5879 759.71484 L 1839.5879 709.95703 z M 1398.4492 755.2207 C 1394.4664 755.2207 1390.4828 755.54155 1386.5 756.18359 C 1382.6703 756.61162 1378.994 757.25332 1375.4707 758.10938 C 1371.9474 758.75142 1368.6536 759.60766 1365.5898 760.67773 C 1362.6793 761.53379 1360.2277 762.39004 1358.2363 763.24609 L 1362.6035 801.76953 C 1366.7395 799.62939 1371.6407 798.0232 1377.3086 796.95312 C 1382.9765 795.66904 1388.7219 795.02734 1394.543 795.02734 C 1403.2746 795.02734 1409.4005 797.48783 1412.9238 802.41016 C 1416.4471 807.33248 1418.209 813.85965 1418.209 821.99219 L 1418.209 826.48633 C 1416.0644 825.63027 1413.2303 824.98858 1409.707 824.56055 C 1406.3369 823.9185 1402.4307 823.59766 1397.9883 823.59766 C 1391.4013 823.59766 1385.0454 824.5602 1378.918 826.48633 C 1372.7905 828.19844 1367.3523 831.08803 1362.6035 835.1543 C 1357.8547 839.22057 1354.0238 844.67889 1351.1133 851.52734 C 1348.3559 858.3758 1346.9785 866.72176 1346.9785 876.56641 C 1346.9785 886.83909 1348.2033 895.50589 1350.6543 902.56836 C 1353.1053 909.63083 1356.629 915.41 1361.2246 919.9043 C 1365.8202 924.18458 1371.2584 927.28872 1377.5391 929.21484 C 1383.9729 931.14097 1391.0957 932.10352 1398.9082 932.10352 C 1411.3163 932.10352 1421.8856 931.03272 1430.6172 928.89258 C 1439.3488 926.96645 1446.1664 925.25396 1451.0684 923.75586 L 1451.0684 824.24023 C 1451.0684 813.75354 1450.2261 804.23049 1448.541 795.66992 C 1446.856 787.10936 1443.9446 779.83224 1439.8086 773.83984 C 1435.8258 767.84745 1430.4648 763.24537 1423.7246 760.03516 C 1416.9844 756.82494 1408.5595 755.2207 1398.4492 755.2207 z M 1947.3164 755.2207 C 1943.3336 755.2207 1939.35 755.54155 1935.3672 756.18359 C 1931.5375 756.61162 1927.8612 757.25332 1924.3379 758.10938 C 1920.8146 758.75142 1917.5208 759.60766 1914.457 760.67773 C 1911.5465 761.53379 1909.0949 762.39004 1907.1035 763.24609 L 1911.4707 801.76953 C 1915.6067 799.62939 1920.5079 798.0232 1926.1758 796.95312 C 1931.8437 795.66904 1937.5891 795.02734 1943.4102 795.02734 C 1952.1418 795.02734 1958.2677 797.48783 1961.791 802.41016 C 1965.3143 807.33248 1967.0762 813.85965 1967.0762 821.99219 L 1967.0762 826.48633 C 1964.9316 825.63027 1962.0975 824.98858 1958.5742 824.56055 C 1955.2041 823.9185 1951.2979 823.59766 1946.8555 823.59766 C 1940.2685 823.59766 1933.9126 824.5602 1927.7852 826.48633 C 1921.6577 828.19844 1916.2195 831.08803 1911.4707 835.1543 C 1906.7219 839.22057 1902.891 844.67889 1899.9805 851.52734 C 1897.2231 858.3758 1895.8457 866.72176 1895.8457 876.56641 C 1895.8457 886.83909 1897.0705 895.50589 1899.5215 902.56836 C 1901.9725 909.63083 1905.4962 915.41 1910.0918 919.9043 C 1914.6874 924.18458 1920.1256 927.28872 1926.4062 929.21484 C 1932.8401 931.14097 1939.9629 932.10352 1947.7754 932.10352 C 1960.1835 932.10352 1970.7528 931.03272 1979.4844 928.89258 C 1988.216 926.96645 1995.0336 925.25396 1999.9355 923.75586 L 1999.9355 824.24023 C 1999.9355 813.75354 1999.0933 804.23049 1997.4082 795.66992 C 1995.7232 787.10936 1992.8118 779.83224 1988.6758 773.83984 C 1984.6929 767.84745 1979.332 763.24537 1972.5918 760.03516 C 1965.8516 756.82494 1957.4267 755.2207 1947.3164 755.2207 z M 2083.0547 755.2207 C 2075.7018 755.2207 2068.5016 757.14579 2061.4551 760.99805 C 2054.5617 764.8503 2048.4338 770.52318 2043.0723 778.01367 C 2037.7108 785.50417 2033.3447 794.92092 2029.9746 806.26367 C 2026.7577 817.39241 2025.1504 830.44674 2025.1504 845.42773 C 2025.1504 857.84055 2026.3752 869.39695 2028.8262 880.09766 C 2031.4303 890.79836 2035.3366 900.10882 2040.5449 908.02734 C 2045.9064 915.73185 2052.5695 921.82992 2060.5352 926.32422 C 2068.654 930.81852 2078.1511 933.06641 2089.0273 933.06641 C 2093.3166 933.06641 2097.6073 932.74556 2101.8965 932.10352 C 2106.1857 931.46147 2110.1673 930.60523 2113.8438 929.53516 C 2117.6734 928.6791 2121.1199 927.6083 2124.1836 926.32422 C 2127.2473 925.04013 2129.6989 923.75674 2131.5371 922.47266 L 2126.9414 883.62891 C 2123.1118 885.98306 2118.1333 888.0164 2112.0059 889.72852 C 2106.0316 891.22661 2099.9037 891.97656 2093.623 891.97656 C 2083.8191 891.97656 2076.0066 889.08698 2070.1855 883.30859 C 2064.3645 877.53021 2061.0726 869.7177 2060.3066 859.87305 L 2137.9707 859.87305 C 2138.1239 857.30488 2138.2785 854.41529 2138.4316 851.20508 C 2138.5848 847.78085 2138.6602 844.67867 2138.6602 841.89648 C 2138.6602 813.4326 2133.6817 791.92406 2123.7246 777.37109 C 2113.7675 762.60412 2100.2115 755.2207 2083.0547 755.2207 z M 1533.498 755.86328 C 1523.3878 755.86328 1513.7361 756.93212 1504.5449 759.07227 C 1495.3538 760.99839 1487.8484 763.13999 1482.0273 765.49414 L 1482.0273 928.57227 L 1516.2637 928.57227 L 1516.2637 798.23828 C 1518.4083 797.81025 1520.8598 797.48745 1523.6172 797.27344 C 1526.3745 796.84541 1528.9787 796.63281 1531.4297 796.63281 C 1539.3954 796.63281 1544.8336 799.84325 1547.7441 806.26367 C 1550.6547 812.6841 1552.1094 823.59879 1552.1094 839.00781 L 1552.1094 928.57227 L 1586.3477 928.57227 L 1586.3477 833.22852 C 1586.3477 821.67175 1585.5034 811.18615 1583.8184 801.76953 C 1582.1333 792.35291 1579.2992 784.21955 1575.3164 777.37109 C 1571.3336 770.52264 1565.8973 765.27887 1559.0039 761.64062 C 1552.2637 757.78837 1543.7615 755.86328 1533.498 755.86328 z M 2151.2949 759.71484 C 2158.1883 792.88704 2165.541 822.84979 2173.3535 849.60156 C 2181.166 876.13932 2188.9785 900.10835 2196.791 921.50977 C 2194.4932 929.6423 2191.6592 935.95492 2188.2891 940.44922 C 2185.0722 945.15753 2180.4009 947.51172 2174.2734 947.51172 C 2171.2097 947.51172 2168.2984 947.19087 2165.541 946.54883 C 2162.7837 945.90679 2159.6444 944.72969 2156.1211 943.01758 L 2150.1465 981.21875 C 2153.057 982.93086 2156.7334 984.42881 2161.1758 985.71289 C 2165.7714 987.21099 2170.7498 987.96094 2176.1113 987.96094 C 2182.5451 987.96094 2188.136 986.89014 2192.8848 984.75 C 2197.7867 982.82387 2202.1528 979.61344 2205.9824 975.11914 C 2209.8121 970.83886 2213.3358 965.27619 2216.5527 958.42773 C 2219.7696 951.7933 2222.9862 943.65993 2226.2031 934.0293 C 2235.0879 907.27753 2243.2829 879.66896 2250.7891 851.20508 C 2258.2952 822.7412 2265.4953 792.24499 2272.3887 759.71484 L 2237.002 759.71484 C 2235.4701 768.0614 2233.7082 777.1573 2231.7168 787.00195 C 2229.8786 796.63259 2227.8887 806.47649 2225.7441 816.53516 C 2223.7527 826.37981 2221.6837 836.01111 2219.5391 845.42773 C 2217.3945 854.84436 2215.3274 863.40487 2213.3359 871.10938 C 2211.1913 863.40487 2208.8924 854.84436 2206.4414 845.42773 C 2204.1436 836.01111 2201.8466 826.37981 2199.5488 816.53516 C 2197.251 806.47649 2195.0294 796.63259 2192.8848 787.00195 C 2190.8933 777.1573 2189.1315 768.0614 2187.5996 759.71484 L 2151.2949 759.71484 z M 2083.5137 794.70703 C 2087.4965 794.70703 2090.7904 795.66958 2093.3945 797.5957 C 2096.1519 799.52183 2098.3735 801.98232 2100.0586 804.97852 C 2101.8968 807.97471 2103.1989 811.3997 2103.9648 815.25195 C 2104.884 819.10421 2105.4191 823.06264 2105.5723 827.12891 L 2060.3066 827.12891 C 2060.7662 823.06264 2061.4539 819.10421 2062.373 815.25195 C 2063.4453 811.18568 2064.902 807.6544 2066.7402 804.6582 C 2068.5785 801.66201 2070.8755 799.30782 2073.6328 797.5957 C 2076.3902 795.66958 2079.684 794.70703 2083.5137 794.70703 z M 1404.4219 855.70117 C 1406.7197 855.70117 1409.2485 855.91377 1412.0059 856.3418 C 1414.7632 856.76983 1416.8303 857.19892 1418.209 857.62695 L 1418.209 893.90234 C 1416.3708 894.33037 1413.9211 894.65122 1410.8574 894.86523 C 1407.7937 895.07925 1404.5752 895.18555 1401.2051 895.18555 C 1394.9244 895.18555 1389.946 893.7939 1386.2695 891.01172 C 1382.7462 888.01552 1380.9844 882.7737 1380.9844 875.2832 C 1380.9844 871.43095 1381.5987 868.22051 1382.8242 865.65234 C 1384.0497 863.08417 1385.7343 861.05083 1387.8789 859.55273 C 1390.0235 858.05464 1392.4751 857.09209 1395.2324 856.66406 C 1398.143 856.02202 1401.205 855.70117 1404.4219 855.70117 z M 1953.2891 855.70117 C 1955.5869 855.70117 1958.1157 855.91377 1960.873 856.3418 C 1963.6304 856.76983 1965.6975 857.19892 1967.0762 857.62695 L 1967.0762 893.90234 C 1965.2379 894.33037 1962.7864 894.65122 1959.7227 894.86523 C 1956.6589 895.07925 1953.4424 895.18555 1950.0723 895.18555 C 1943.7916 895.18555 1938.8132 893.7939 1935.1367 891.01172 C 1931.6134 888.01552 1929.8516 882.7737 1929.8516 875.2832 C 1929.8516 871.43095 1930.4659 868.22051 1931.6914 865.65234 C 1932.9169 863.08417 1934.6015 861.05083 1936.7461 859.55273 C 1938.8907 858.05464 1941.3403 857.09209 1944.0977 856.66406 C 1947.0082 856.02202 1950.0722 855.70117 1953.2891 855.70117 z "
       style="font-style:normal;font-weight:normal;font-size:71.85958862px;line-height:1.25;font-family:sans-serif;letter-spacing:0px;word-spacing:0px;display:inline;fill:#dbe3e2;fill-opacity:1;stroke:none;stroke-width:0.67898822" />
  </g>
</svg>
